<svg xmlns="http://www.w3.org/2000/svg" width="1254" height="1254" viewBox="0 0 1254 1254">
<path d="M 566 310 L 550 314 L 540 315 L 511 323 L 508 325 L 490 331 L 460 346 L 433 364 L 416 378 L 396 398 L 377 422 L 360 449 L 347 476 L 336 507 L 330 533 L 328 554 L 326 557 L 327 559 L 326 593 L 327 594 L 328 617 L 334 649 L 341 672 L 352 699 L 366 725 L 380 746 L 399 769 L 415 785 L 434 801 L 462 820 L 491 835 L 531 849 L 549 853 L 567 855 L 568 856 L 578 856 L 579 857 L 628 856 L 629 855 L 649 853 L 683 844 L 686 842 L 704 836 L 719 828 L 723 827 L 742 816 L 771 795 L 800 767 L 810 755 L 832 723 L 844 700 L 855 673 L 862 650 L 866 632 L 868 614 L 869 613 L 869 603 L 870 602 L 870 587 L 871 586 L 870 576 L 871 573 L 870 572 L 869 547 L 868 546 L 868 539 L 867 538 L 865 522 L 857 492 L 855 489 L 849 471 L 835 443 L 825 427 L 805 401 L 779 375 L 753 355 L 730 341 L 707 330 L 675 319 L 655 314 L 650 314 L 647 312 L 637 312 L 624 309 L 621 310 L 586 309 L 585 310 L 573 310 L 572 311 Z M 769 757 L 755 770 L 738 783 L 718 796 L 692 809 L 667 818 L 652 822 L 636 825 L 630 825 L 629 826 L 607 827 L 606 828 L 577 827 L 576 826 L 561 825 L 538 820 L 513 812 L 499 806 L 473 792 L 453 778 L 429 757 L 430 756 L 437 756 L 438 757 L 444 757 L 450 759 L 456 759 L 476 763 L 521 768 L 522 769 L 555 771 L 556 772 L 576 772 L 577 773 L 622 773 L 623 772 L 642 772 L 643 771 L 654 771 L 655 770 L 667 770 L 668 769 L 676 769 L 677 768 L 693 767 L 701 765 L 729 762 L 730 761 L 742 760 L 767 755 Z M 705 528 L 781 528 L 785 532 L 785 723 L 783 725 L 771 726 L 767 728 L 733 733 L 720 736 L 714 736 L 713 737 L 707 737 L 706 738 L 703 738 L 701 736 L 701 533 Z M 417 528 L 424 528 L 425 527 L 430 528 L 494 528 L 498 534 L 498 726 L 497 727 L 498 736 L 496 738 L 491 738 L 489 736 L 485 737 L 484 736 L 478 736 L 475 734 L 465 734 L 464 733 L 429 728 L 427 726 L 419 726 L 415 725 L 413 723 L 413 532 Z M 561 496 L 637 496 L 640 497 L 643 501 L 643 742 L 639 745 L 581 746 L 580 745 L 560 745 L 555 742 L 555 502 Z M 397 467 L 403 462 L 461 441 L 469 437 L 477 435 L 553 406 L 564 403 L 594 391 L 602 390 L 700 426 L 703 428 L 711 430 L 719 434 L 772 453 L 793 462 L 798 463 L 802 468 L 802 498 L 798 502 L 783 502 L 780 500 L 717 479 L 714 479 L 677 466 L 674 466 L 600 442 L 591 444 L 588 446 L 585 446 L 553 457 L 550 457 L 503 473 L 500 473 L 415 502 L 400 502 L 397 499 Z M 598 57 L 597 58 L 547 62 L 542 64 L 533 64 L 529 66 L 518 67 L 513 69 L 508 69 L 504 71 L 483 75 L 434 90 L 381 112 L 334 137 L 289 167 L 247 201 L 208 239 L 172 282 L 139 330 L 116 371 L 110 385 L 103 397 L 102 402 L 89 432 L 87 440 L 84 445 L 80 461 L 77 467 L 74 481 L 72 484 L 72 488 L 70 491 L 66 515 L 64 520 L 64 525 L 62 529 L 62 537 L 60 543 L 58 565 L 56 571 L 57 574 L 56 575 L 55 604 L 54 605 L 54 649 L 55 650 L 55 670 L 56 671 L 56 681 L 57 682 L 57 691 L 58 692 L 58 699 L 60 708 L 60 716 L 68 756 L 71 764 L 76 786 L 81 799 L 81 802 L 83 805 L 83 808 L 85 811 L 88 822 L 94 835 L 97 845 L 101 852 L 108 870 L 110 872 L 110 875 L 137 923 L 154 949 L 173 975 L 205 1013 L 240 1048 L 281 1082 L 329 1115 L 355 1130 L 393 1149 L 432 1165 L 479 1180 L 487 1181 L 491 1183 L 499 1184 L 512 1188 L 527 1190 L 532 1192 L 546 1193 L 552 1195 L 567 1196 L 568 1197 L 577 1197 L 578 1198 L 581 1197 L 582 1198 L 591 1198 L 592 1199 L 596 1198 L 606 1200 L 610 1199 L 635 1199 L 636 1200 L 647 1199 L 650 1200 L 660 1198 L 674 1198 L 675 1197 L 710 1194 L 760 1184 L 820 1166 L 862 1149 L 909 1125 L 955 1096 L 1000 1061 L 1036 1027 L 1059 1002 L 1077 980 L 1107 938 L 1130 899 L 1146 867 L 1146 865 L 1148 863 L 1159 834 L 1161 832 L 1161 829 L 1165 821 L 1169 805 L 1172 799 L 1176 781 L 1179 774 L 1179 770 L 1181 768 L 1181 762 L 1184 753 L 1186 739 L 1188 735 L 1189 722 L 1192 711 L 1192 704 L 1194 698 L 1195 681 L 1196 680 L 1195 676 L 1197 668 L 1197 648 L 1198 647 L 1197 640 L 1199 632 L 1199 626 L 1198 625 L 1199 621 L 1198 620 L 1197 588 L 1196 587 L 1196 576 L 1194 568 L 1193 550 L 1190 539 L 1190 531 L 1184 507 L 1183 498 L 1181 494 L 1178 478 L 1176 475 L 1175 467 L 1173 464 L 1172 458 L 1165 440 L 1165 437 L 1149 397 L 1136 370 L 1119 339 L 1089 293 L 1054 249 L 1009 203 L 987 184 L 960 163 L 937 147 L 911 131 L 860 105 L 817 88 L 763 72 L 759 72 L 750 69 L 745 69 L 731 65 L 723 65 L 709 62 L 702 62 L 696 60 L 684 60 L 683 59 L 672 59 L 671 58 L 652 58 L 651 57 L 605 57 L 604 58 Z M 372 334 L 393 316 L 418 298 L 442 284 L 480 267 L 508 258 L 540 251 L 561 249 L 562 248 L 571 248 L 572 247 L 610 246 L 611 247 L 640 248 L 641 249 L 648 249 L 649 250 L 672 253 L 700 260 L 735 273 L 767 289 L 798 309 L 823 329 L 843 348 L 865 373 L 878 391 L 891 412 L 901 431 L 901 433 L 909 449 L 920 480 L 920 485 L 922 487 L 929 517 L 932 544 L 933 545 L 932 550 L 934 558 L 934 600 L 933 601 L 933 613 L 931 619 L 932 622 L 929 632 L 930 635 L 928 638 L 929 641 L 927 646 L 927 650 L 922 670 L 920 672 L 919 680 L 908 711 L 906 713 L 905 718 L 893 743 L 885 757 L 880 763 L 878 769 L 989 883 L 1011 907 L 1015 917 L 1015 922 L 1016 923 L 1016 932 L 1014 941 L 1008 954 L 993 970 L 980 977 L 972 979 L 957 979 L 942 972 L 817 839 L 813 841 L 791 859 L 761 878 L 738 890 L 733 891 L 727 895 L 712 901 L 673 913 L 669 913 L 664 915 L 657 915 L 652 917 L 644 917 L 641 919 L 621 920 L 620 921 L 611 920 L 610 921 L 581 921 L 580 920 L 571 920 L 562 918 L 559 919 L 558 918 L 540 916 L 535 914 L 530 914 L 503 907 L 468 894 L 438 879 L 405 858 L 373 832 L 350 809 L 326 779 L 310 754 L 296 728 L 283 697 L 273 665 L 266 629 L 265 611 L 264 610 L 264 555 L 265 554 L 266 534 L 267 533 L 267 527 L 271 506 L 279 477 L 291 446 L 308 414 L 329 382 L 353 353 Z" fill="#F5F4F1" fill-rule="evenodd"/>
<path d="M 705 529 L 702 533 L 702 736 L 706 737 L 707 736 L 727 734 L 733 732 L 739 732 L 740 731 L 767 727 L 771 725 L 783 724 L 784 723 L 784 532 L 781 529 Z M 417 529 L 414 532 L 414 723 L 419 725 L 427 725 L 429 727 L 434 727 L 465 733 L 475 733 L 478 735 L 484 735 L 485 736 L 489 735 L 491 737 L 496 737 L 497 736 L 497 730 L 496 729 L 497 726 L 497 534 L 494 529 L 430 529 L 429 528 Z M 372 335 L 354 353 L 330 382 L 309 414 L 292 446 L 280 477 L 272 506 L 268 527 L 267 542 L 266 543 L 266 554 L 265 555 L 265 610 L 266 611 L 267 629 L 268 630 L 268 636 L 272 657 L 284 697 L 297 728 L 311 754 L 327 779 L 351 809 L 373 831 L 405 857 L 431 874 L 468 893 L 503 906 L 530 913 L 535 913 L 540 915 L 558 917 L 559 918 L 562 917 L 563 918 L 580 919 L 581 920 L 610 920 L 611 919 L 620 920 L 621 919 L 641 918 L 644 916 L 652 916 L 657 914 L 664 914 L 669 912 L 673 912 L 712 900 L 727 894 L 733 890 L 738 889 L 761 877 L 791 858 L 813 840 L 817 838 L 942 971 L 957 978 L 972 978 L 980 976 L 993 969 L 1007 954 L 1013 941 L 1015 932 L 1015 923 L 1014 922 L 1014 917 L 1010 907 L 988 883 L 877 769 L 879 763 L 884 757 L 892 743 L 904 718 L 905 713 L 907 711 L 918 680 L 919 672 L 921 670 L 926 650 L 926 646 L 928 641 L 927 638 L 929 635 L 928 632 L 931 622 L 930 619 L 932 613 L 932 601 L 933 600 L 933 558 L 931 550 L 932 545 L 931 544 L 928 517 L 921 487 L 919 485 L 919 480 L 914 465 L 900 431 L 890 412 L 877 391 L 864 373 L 842 348 L 816 324 L 785 301 L 756 284 L 735 274 L 700 261 L 672 254 L 649 251 L 648 250 L 641 250 L 640 249 L 611 248 L 610 247 L 572 248 L 571 249 L 562 249 L 561 250 L 540 252 L 508 259 L 480 268 L 454 279 L 418 299 L 393 317 Z M 566 309 L 572 310 L 573 309 L 585 309 L 586 308 L 613 308 L 614 309 L 624 308 L 637 311 L 647 311 L 650 313 L 655 313 L 675 318 L 697 325 L 730 340 L 753 354 L 779 374 L 806 401 L 821 420 L 836 443 L 850 471 L 856 489 L 858 492 L 866 522 L 868 538 L 869 539 L 869 546 L 870 547 L 871 572 L 872 573 L 871 576 L 871 584 L 872 585 L 871 587 L 871 602 L 870 603 L 869 620 L 863 650 L 856 673 L 845 700 L 833 723 L 811 755 L 801 767 L 778 790 L 754 809 L 732 823 L 704 837 L 686 843 L 683 845 L 649 854 L 629 856 L 628 857 L 579 858 L 578 857 L 561 856 L 531 850 L 491 836 L 462 821 L 434 802 L 415 786 L 398 769 L 379 746 L 365 725 L 351 699 L 340 672 L 333 649 L 327 617 L 326 594 L 325 593 L 325 568 L 326 567 L 325 557 L 327 554 L 329 533 L 335 507 L 346 476 L 359 449 L 368 434 L 385 410 L 395 398 L 416 377 L 433 363 L 460 345 L 490 330 L 508 324 L 511 322 L 540 314 L 550 313 Z M 593 0 L 592 1 L 583 1 L 582 2 L 565 2 L 564 3 L 549 4 L 535 7 L 527 7 L 521 9 L 495 13 L 482 17 L 477 17 L 455 24 L 448 25 L 415 36 L 360 59 L 316 82 L 288 99 L 256 121 L 229 142 L 206 162 L 163 205 L 135 238 L 120 258 L 89 305 L 63 353 L 63 355 L 48 386 L 34 422 L 17 479 L 14 498 L 10 513 L 10 518 L 5 543 L 5 549 L 4 550 L 4 556 L 3 557 L 2 580 L 0 590 L 0 662 L 1 663 L 2 687 L 3 688 L 6 718 L 7 719 L 7 724 L 13 756 L 15 761 L 20 786 L 37 840 L 39 843 L 43 856 L 47 863 L 48 868 L 63 899 L 63 901 L 83 939 L 118 993 L 151 1035 L 177 1063 L 199 1084 L 229 1110 L 259 1133 L 306 1164 L 327 1176 L 352 1188 L 354 1190 L 405 1212 L 436 1223 L 439 1223 L 442 1225 L 445 1225 L 470 1233 L 490 1237 L 499 1240 L 537 1246 L 538 1247 L 572 1250 L 573 1251 L 584 1251 L 585 1252 L 600 1252 L 601 1253 L 654 1253 L 655 1252 L 669 1252 L 670 1251 L 708 1248 L 772 1236 L 830 1219 L 885 1197 L 904 1187 L 906 1187 L 910 1184 L 912 1184 L 946 1165 L 989 1136 L 992 1135 L 1037 1099 L 1057 1081 L 1087 1051 L 1127 1003 L 1160 955 L 1177 926 L 1191 899 L 1191 897 L 1193 895 L 1217 837 L 1234 782 L 1234 778 L 1241 751 L 1241 746 L 1246 724 L 1247 711 L 1249 705 L 1248 702 L 1250 695 L 1250 686 L 1252 677 L 1252 664 L 1253 663 L 1253 590 L 1252 589 L 1250 557 L 1249 556 L 1246 529 L 1244 523 L 1244 517 L 1231 459 L 1227 449 L 1223 433 L 1221 430 L 1220 424 L 1218 421 L 1210 397 L 1197 367 L 1187 348 L 1187 346 L 1169 313 L 1152 285 L 1123 244 L 1089 203 L 1049 163 L 997 120 L 948 87 L 923 73 L 921 73 L 912 67 L 910 67 L 893 58 L 840 36 L 837 36 L 834 34 L 810 26 L 764 14 L 732 8 L 727 8 L 726 7 L 721 7 L 720 6 L 715 6 L 714 5 L 689 3 L 688 2 L 663 1 L 662 0 Z M 598 56 L 601 57 L 605 56 L 651 56 L 652 57 L 671 57 L 672 58 L 683 58 L 684 59 L 696 59 L 702 61 L 709 61 L 723 64 L 731 64 L 745 68 L 750 68 L 759 71 L 763 71 L 817 87 L 860 104 L 911 130 L 937 146 L 960 162 L 987 183 L 1009 202 L 1047 240 L 1066 262 L 1090 293 L 1120 339 L 1137 370 L 1150 397 L 1166 437 L 1166 440 L 1168 443 L 1173 458 L 1173 461 L 1176 467 L 1177 475 L 1179 478 L 1179 482 L 1181 485 L 1182 494 L 1184 498 L 1185 507 L 1191 531 L 1191 539 L 1194 550 L 1195 568 L 1196 569 L 1197 587 L 1198 588 L 1199 620 L 1200 621 L 1199 623 L 1200 632 L 1198 640 L 1199 642 L 1198 668 L 1196 676 L 1197 680 L 1196 681 L 1195 698 L 1193 704 L 1193 711 L 1190 722 L 1189 735 L 1187 739 L 1185 753 L 1182 762 L 1182 768 L 1180 770 L 1180 774 L 1177 781 L 1173 799 L 1170 805 L 1170 808 L 1167 815 L 1166 821 L 1162 829 L 1162 832 L 1160 834 L 1149 863 L 1147 865 L 1147 867 L 1131 899 L 1108 938 L 1078 980 L 1060 1002 L 1037 1027 L 1000 1062 L 955 1097 L 909 1126 L 862 1150 L 820 1167 L 760 1185 L 710 1195 L 702 1195 L 701 1196 L 675 1198 L 674 1199 L 660 1199 L 650 1201 L 647 1200 L 642 1201 L 610 1200 L 606 1201 L 596 1199 L 592 1200 L 591 1199 L 582 1199 L 581 1198 L 579 1199 L 577 1198 L 568 1198 L 567 1197 L 552 1196 L 546 1194 L 532 1193 L 527 1191 L 512 1189 L 499 1185 L 491 1184 L 487 1182 L 479 1181 L 432 1166 L 393 1150 L 355 1131 L 329 1116 L 281 1083 L 240 1049 L 204 1013 L 172 975 L 153 949 L 136 923 L 109 875 L 109 872 L 107 870 L 100 852 L 96 845 L 93 835 L 87 822 L 84 811 L 82 808 L 82 805 L 80 802 L 80 799 L 75 786 L 74 779 L 67 756 L 59 716 L 59 708 L 58 707 L 56 682 L 55 681 L 55 671 L 54 670 L 54 650 L 53 649 L 53 605 L 54 604 L 54 587 L 55 586 L 55 575 L 56 574 L 55 571 L 57 565 L 58 550 L 61 537 L 61 529 L 63 525 L 63 520 L 65 515 L 69 491 L 71 488 L 71 484 L 73 481 L 76 467 L 79 461 L 83 445 L 86 440 L 88 432 L 99 407 L 102 397 L 104 395 L 115 371 L 138 330 L 171 282 L 207 239 L 247 200 L 289 166 L 334 136 L 381 111 L 434 89 L 483 74 L 504 70 L 508 68 L 513 68 L 518 66 L 529 65 L 533 63 L 542 63 L 547 61 L 597 57 Z" fill="#031736" fill-rule="evenodd"/>
<path d="M 768 757 L 767 756 L 742 761 L 736 761 L 729 763 L 701 766 L 693 768 L 677 769 L 676 770 L 643 772 L 642 773 L 623 773 L 622 774 L 577 774 L 576 773 L 544 772 L 543 771 L 533 771 L 532 770 L 522 770 L 513 768 L 497 767 L 496 766 L 476 764 L 456 760 L 450 760 L 444 758 L 430 757 L 453 777 L 473 791 L 487 799 L 513 811 L 538 819 L 561 824 L 568 824 L 577 826 L 593 826 L 594 827 L 621 826 L 622 825 L 642 823 L 667 817 L 692 808 L 718 795 L 738 782 L 755 769 Z M 561 497 L 556 502 L 556 742 L 560 744 L 580 744 L 581 745 L 639 744 L 642 742 L 642 501 L 640 498 L 637 497 Z M 398 467 L 398 499 L 400 501 L 415 501 L 500 472 L 503 472 L 550 456 L 553 456 L 585 445 L 588 445 L 591 443 L 600 441 L 674 465 L 677 465 L 714 478 L 717 478 L 780 499 L 783 501 L 798 501 L 801 498 L 801 468 L 798 464 L 793 463 L 785 459 L 719 435 L 711 431 L 703 429 L 700 427 L 602 391 L 594 392 L 564 404 L 553 407 L 477 436 L 469 438 L 461 442 L 403 463 Z" fill="#536F54" fill-rule="evenodd"/>
</svg>